<svg version="1.1" id="Layer_1" xmlns="http://www.w3.org/2000/svg" xmlns:xlink="http://www.w3.org/1999/xlink" x="0px" y="0px"
	 width="100%" viewBox="0 0 220 220" enable-background="new 0 0 220 220" xml:space="preserve">
<path fill="#FCFCFD" opacity="1.000000" stroke="none" 
	d="
M221.000000,82.000000 
	C221.000000,128.666672 221.000000,174.833328 221.000000,221.000000 
	C147.666672,221.000000 74.333336,221.000000 1.000000,221.000000 
	C1.000000,147.666672 1.000000,74.333336 1.000000,1.000000 
	C74.333336,1.000000 147.666672,1.000000 221.000000,1.000000 
	C221.000000,27.833334 221.000000,54.666668 221.000000,82.000000 
M86.283058,207.628052 
	C85.942970,204.778122 85.736343,201.903671 85.218857,199.086334 
	C84.832954,196.985382 84.045158,194.958252 83.436348,192.898239 
	C82.939613,194.888382 82.442871,196.878525 81.221184,198.970428 
	C80.737091,198.441742 80.286255,197.877289 79.762947,197.390778 
	C77.856842,195.618820 75.975632,192.560760 73.991478,192.486496 
	C72.010033,192.412323 69.916382,195.335373 67.433350,197.400558 
	C67.277580,198.227005 67.121811,199.053452 66.268044,199.658035 
	C63.609100,192.828812 62.689529,192.216125 56.337772,193.444931 
	C56.337772,197.771744 56.508953,202.203644 56.285774,206.615616 
	C56.093403,210.418549 57.830399,211.585068 61.028366,210.289734 
	C63.487560,209.293640 65.648590,207.561432 68.136902,206.817291 
	C72.286079,212.387756 75.516502,212.343338 79.266045,206.764008 
	C79.947647,205.749786 81.030991,205.005539 81.960976,204.944534 
	C81.580711,207.890900 82.440750,210.470367 85.588043,210.719254 
	C87.036819,210.833817 88.639015,209.008362 90.642288,208.124222 
	C91.055534,208.073318 91.829048,208.028839 91.830093,207.970581 
	C91.871384,205.655533 91.842613,203.339203 92.304710,200.402817 
	C92.275505,199.105942 92.246292,197.809082 92.778099,196.126984 
	C93.192345,195.947418 93.606590,195.767853 94.855629,195.864334 
	C95.548172,196.531891 96.751190,197.139328 96.838226,197.878204 
	C97.106842,200.158768 96.777229,202.507141 97.011482,204.795242 
	C97.204819,206.683792 97.869606,208.524048 98.325485,210.385712 
	C98.935486,208.511124 99.748184,206.674820 100.110924,204.753555 
	C100.755302,201.340607 101.126907,197.876160 101.773628,193.292053 
	C99.021355,191.431961 94.366165,193.488022 89.293716,193.171600 
	C89.260605,194.104706 89.227486,195.037796 89.046089,196.641403 
	C89.087822,197.095474 89.129555,197.549530 88.999939,198.498672 
	C89.055298,198.664307 89.110649,198.829926 89.036430,199.654068 
	C89.091637,200.095673 89.146843,200.537262 89.010094,201.751862 
	C88.339485,203.821365 87.668877,205.890869 86.283058,207.628052 
M163.792358,207.738754 
	C164.215668,207.484894 164.638992,207.231018 165.590485,207.429810 
	C167.764557,208.543533 170.236603,210.880173 172.032654,210.442551 
	C174.006927,209.961487 176.067947,207.157150 176.787323,204.941681 
	C177.540909,202.620895 177.348022,199.560989 176.446411,197.264877 
	C175.660034,195.262268 173.497940,192.856583 171.599350,192.508789 
	C169.827530,192.184235 167.602463,194.333969 164.838470,195.182129 
	C164.333206,195.101852 163.827957,195.021576 163.233154,194.189636 
	C162.331589,193.546783 161.383163,192.299347 160.536469,192.364944 
	C156.713501,192.661102 153.835480,196.764267 153.846817,201.442993 
	C153.858780,206.376633 156.480392,210.234085 160.467590,210.519012 
	C161.365280,210.583160 162.389816,208.872086 163.792358,207.738754 
M142.180405,207.097977 
	C141.432190,206.145966 140.139725,205.248123 140.038589,204.231720 
	C139.744415,201.275269 140.141739,198.247009 139.807373,195.299149 
	C139.689529,194.260254 138.239120,193.372513 137.397125,192.415771 
	C137.035843,192.715485 136.674576,193.015198 136.313293,193.314911 
	C136.313293,199.166916 136.313293,205.018936 136.313293,212.113861 
	C139.040863,210.819748 141.026642,209.877594 143.752075,208.599976 
	C145.964355,209.269424 148.153641,210.074371 150.414459,210.457687 
	C150.741821,210.513199 151.412033,208.546448 151.923584,207.515503 
	C145.461288,205.814224 149.509460,203.628860 151.865280,201.749237 
	C147.775833,197.650864 147.859818,195.803329 151.993713,193.925583 
	C147.096832,191.643814 144.914566,192.940247 144.890640,198.147995 
	C144.877686,200.969116 144.930115,203.793533 144.777573,206.606949 
	C144.759995,206.931183 143.613953,207.194229 142.180405,207.097977 
M101.867554,181.177368 
	C103.457809,181.177368 105.048065,181.177368 106.563469,181.177368 
	C106.563469,155.055649 106.563469,129.547272 106.563469,104.077560 
	C80.582596,104.077560 55.023911,104.077560 29.358276,104.077560 
	C29.358276,129.883118 29.358276,155.400940 29.358276,180.971741 
	C52.799362,180.971741 75.905579,180.971741 99.663170,181.126114 
	C100.103500,181.074860 100.543831,181.023605 101.867554,181.177368 
M115.390175,180.795395 
	C116.863480,180.937393 118.336647,181.201462 119.810112,181.203140 
	C142.765854,181.229431 165.721649,181.225082 188.677429,181.213074 
	C189.958557,181.212402 191.239624,181.083511 192.628677,181.008453 
	C192.628677,155.178802 192.628677,129.667770 192.628677,104.179375 
	C166.639603,104.179375 140.967987,104.179375 115.237137,104.179375 
	C115.237137,107.382118 115.237137,110.184959 115.084320,113.915306 
	C115.147690,134.278702 115.211067,154.642090 115.067940,175.737305 
	C115.125313,176.489502 115.182686,177.241699 115.091080,178.632019 
	C115.141273,179.063080 115.191467,179.494125 115.390175,180.795395 
M29.342556,90.116425 
	C30.972208,91.073105 32.595692,92.850433 34.232437,92.862724 
	C56.880806,93.032928 79.531006,92.966042 102.180725,92.932091 
	C103.293533,92.930428 104.405998,92.698334 105.350815,92.592361 
	C105.624855,91.980713 105.871681,91.686417 105.872498,91.391426 
	C105.938499,67.579430 106.028870,43.767128 105.892281,19.956137 
	C105.886086,18.877426 103.816467,17.810549 102.439209,15.963726 
	C102.337540,14.873643 102.235870,13.783561 101.861595,11.961251 
	C101.287323,11.680546 100.713577,11.155560 100.138702,11.154313 
	C76.235062,11.102443 52.331112,11.061007 28.428171,11.193198 
	C27.218256,11.199889 26.016903,12.755019 24.876192,14.575834 
	C24.884804,37.882195 24.958591,61.188923 24.826328,84.494484 
	C24.808107,87.704941 25.356085,89.641304 29.342556,90.116425 
M167.499969,93.903313 
	C175.907867,93.903313 184.315781,93.903313 192.505432,93.903313 
	C192.505432,67.564606 192.505432,42.024799 192.505432,16.508083 
	C166.552383,16.508083 140.999084,16.508083 115.361893,16.508083 
	C115.361893,42.394901 115.361893,67.942787 115.361893,93.903305 
	C132.610779,93.903305 149.555374,93.903305 167.499969,93.903313 
M190.004517,208.117462 
	C190.854324,209.065643 191.704147,210.013824 192.553970,210.962006 
	C192.912491,210.769470 193.271027,210.576950 193.629547,210.384415 
	C193.047928,204.571701 192.466293,198.758987 191.698563,191.086441 
	C188.959930,193.614410 187.275803,195.169006 185.507706,196.801102 
	C185.014236,194.160828 184.159164,191.401505 179.819321,193.611862 
	C179.460739,198.256348 179.003418,203.168106 178.779144,208.090469 
	C178.742188,208.901474 179.727341,209.759064 180.240158,210.595139 
	C180.853775,209.825394 181.850983,209.122345 181.998871,208.271637 
	C182.281647,206.645187 182.081009,204.934692 182.081009,203.259079 
	C182.550003,203.252365 183.018997,203.245651 183.487991,203.238922 
	C184.140945,205.673187 184.793884,208.107437 185.581039,211.042053 
	C186.644531,210.100418 187.140564,209.856918 187.319565,209.467636 
	C187.967453,208.058624 188.508835,206.600647 189.126358,205.072189 
	C189.497299,205.447952 189.825317,205.627167 189.880814,205.868942 
	C189.990204,206.345459 189.948456,206.856674 190.004517,208.117462 
M40.050255,200.674622 
	C39.409615,193.587173 36.958187,191.842499 29.916754,193.476379 
	C29.916754,199.053619 29.916754,204.630859 29.916754,210.173248 
	C38.017807,210.712158 39.888065,209.055283 40.050255,200.674622 
M129.632233,210.681747 
	C131.043228,210.161606 132.454224,209.641464 133.865219,209.121307 
	C132.998230,208.368851 131.930038,207.748672 131.322937,206.825348 
	C130.758499,205.966873 130.293839,204.714386 130.466721,203.758636 
	C131.085419,200.338547 131.993530,196.970825 132.884720,193.190765 
	C131.429138,193.190765 129.133499,193.190765 126.598785,193.190765 
	C126.598785,198.281860 126.489609,203.203033 126.698547,208.110672 
	C126.736542,209.003189 128.074890,209.840332 129.632233,210.681747 
M47.958035,207.342392 
	C48.046062,203.199280 48.234264,199.053543 48.126324,194.915543 
	C48.107716,194.202087 46.831287,193.521439 46.135868,192.825638 
	C45.631874,193.528244 44.737324,194.207642 44.693958,194.937622 
	C44.536705,197.584610 44.912209,200.277664 44.603752,202.896454 
	C44.375210,204.836761 43.397465,206.688828 42.464981,209.427475 
	C43.904747,209.054153 45.825100,208.556229 47.958035,207.342392 
M117.520752,195.966629 
	C117.958740,199.889130 118.295471,203.827438 118.904442,207.723221 
	C119.060638,208.722488 120.076004,209.587433 120.696648,210.514099 
	C121.190704,209.619354 122.022659,208.760498 122.122124,207.823837 
	C122.637093,202.974457 120.359993,197.596970 125.306274,193.280396 
	C122.602058,192.807175 120.191795,192.635712 117.843987,192.942383 
	C117.334457,193.008942 117.048965,194.790741 117.520752,195.966629 
M50.189686,206.048706 
	C50.489929,208.108719 49.718758,211.056107 53.818531,210.274536 
	C53.818531,204.439575 53.818531,198.723053 53.818531,193.006531 
	C53.375645,192.766998 52.932758,192.527451 52.489868,192.287918 
	C51.717888,193.427765 50.401379,194.512848 50.280125,195.718155 
	C49.966736,198.833298 50.180923,202.001511 50.189686,206.048706 
M105.573677,210.404068 
	C106.637131,209.643372 108.558182,208.946228 108.620056,208.111313 
	C108.938942,203.808380 108.951279,199.458664 108.661385,195.152817 
	C108.594757,194.163132 106.918480,193.281815 105.982971,192.350616 
	C105.662201,192.686844 105.341438,193.023071 105.020668,193.359283 
	C105.020668,198.817688 105.020668,204.276077 105.573677,210.404068 
z"/>
<path fill="#0321C4" opacity="1.000000" stroke="none" 
	d="
M166.999969,93.903305 
	C149.555374,93.903305 132.610779,93.903305 115.361893,93.903305 
	C115.361893,67.942787 115.361893,42.394901 115.361893,16.508083 
	C140.999084,16.508083 166.552383,16.508083 192.505432,16.508083 
	C192.505432,42.024799 192.505432,67.564606 192.505432,93.903313 
	C184.315781,93.903313 175.907867,93.903313 166.999969,93.903305 
z"/>
<path fill="#F3B603" opacity="1.000000" stroke="none" 
	d="
M102.134201,12.693478 
	C102.235870,13.783561 102.337540,14.873643 102.407349,16.815762 
	C102.323479,39.600491 102.192993,61.533520 102.288361,83.465576 
	C102.306557,87.649231 101.252266,89.326073 96.676399,89.252022 
	C80.229271,88.985863 63.775150,89.110199 47.323910,89.162323 
	C41.192749,89.181747 35.062241,89.408417 28.931433,89.540573 
	C25.356085,89.641304 24.808107,87.704941 24.826328,84.494484 
	C24.958591,61.188923 24.884804,37.882195 25.242897,13.924932 
	C26.726109,13.032508 27.842680,12.580132 28.959114,12.580468 
	C53.350819,12.587815 77.742508,12.645472 102.134201,12.693478 
z"/>
<path fill="#001FC5" opacity="1.000000" stroke="none" 
	d="
M115.274437,175.005493 
	C115.211067,154.642090 115.147690,134.278702 115.400520,113.155220 
	C116.467918,109.162254 115.057358,104.837212 121.113434,104.898468 
	C142.904404,105.118874 164.699005,105.019127 186.492020,104.959946 
	C190.430298,104.949249 192.084991,106.367180 192.053970,110.567795 
	C191.894241,132.193436 191.922653,153.821213 192.040680,175.447388 
	C192.058975,178.798264 191.226425,180.122559 187.606415,180.096954 
	C163.485641,179.926392 139.363419,179.958771 115.241661,179.925186 
	C115.191467,179.494125 115.141273,179.063080 115.376572,178.115906 
	C115.532860,176.735031 115.403648,175.870255 115.274437,175.005493 
z"/>
<path fill="#001FC5" opacity="1.000000" stroke="none" 
	d="
M100.984161,180.972351 
	C100.543831,181.023605 100.103500,181.074860 99.032089,180.764313 
	C96.588760,180.274063 94.776642,180.036407 92.964218,180.033966 
	C73.642319,180.007950 54.319401,179.918274 34.999241,180.103973 
	C31.053379,180.141891 29.889875,178.996384 29.922483,175.032364 
	C30.101957,153.213379 30.064177,131.391891 29.952335,109.572006 
	C29.935192,106.227554 30.767252,104.891937 34.399315,104.915909 
	C56.718502,105.063263 79.039818,105.079346 101.358650,104.907799 
	C105.242569,104.877945 106.086861,106.253586 106.063011,109.832695 
	C105.922104,130.985962 105.902145,152.141251 106.061050,173.294220 
	C106.091202,177.308426 105.139854,180.034225 100.984161,180.972351 
z"/>
<path fill="#CDCEB2" opacity="1.000000" stroke="none" 
	d="
M29.136993,89.828499 
	C35.062241,89.408417 41.192749,89.181747 47.323910,89.162323 
	C63.775150,89.110199 80.229271,88.985863 96.676399,89.252022 
	C101.252266,89.326073 102.306557,87.649231 102.288361,83.465576 
	C102.192993,61.533520 102.323479,39.600491 102.541702,17.202980 
	C103.816467,17.810549 105.886086,18.877426 105.892281,19.956137 
	C106.028870,43.767128 105.938499,67.579430 105.872498,91.391426 
	C105.871681,91.686417 105.624855,91.980713 105.350815,92.592361 
	C104.405998,92.698334 103.293533,92.930428 102.180725,92.932091 
	C79.531006,92.966042 56.880806,93.032928 34.232437,92.862724 
	C32.595692,92.850433 30.972208,91.073105 29.136993,89.828499 
z"/>
<path fill="#1A2CB1" opacity="1.000000" stroke="none" 
	d="
M101.425858,181.074860 
	C105.139854,180.034225 106.091202,177.308426 106.061050,173.294220 
	C105.902145,152.141251 105.922104,130.985962 106.063011,109.832695 
	C106.086861,106.253586 105.242569,104.877945 101.358650,104.907799 
	C79.039818,105.079346 56.718502,105.063263 34.399315,104.915909 
	C30.767252,104.891937 29.935192,106.227554 29.952335,109.572006 
	C30.064177,131.391891 30.101957,153.213379 29.922483,175.032364 
	C29.889875,178.996384 31.053379,180.141891 34.999241,180.103973 
	C54.319401,179.918274 73.642319,180.007950 92.964218,180.033966 
	C94.776642,180.036407 96.588760,180.274063 98.706406,180.687119 
	C75.905579,180.971741 52.799362,180.971741 29.358276,180.971741 
	C29.358276,155.400940 29.358276,129.883118 29.358276,104.077560 
	C55.023911,104.077560 80.582596,104.077560 106.563469,104.077560 
	C106.563469,129.547272 106.563469,155.055649 106.563469,181.177368 
	C105.048065,181.177368 103.457809,181.177368 101.425858,181.074860 
z"/>
<path fill="#1D30B3" opacity="1.000000" stroke="none" 
	d="
M115.315918,180.360291 
	C139.363419,179.958771 163.485641,179.926392 187.606415,180.096954 
	C191.226425,180.122559 192.058975,178.798264 192.040680,175.447388 
	C191.922653,153.821213 191.894241,132.193436 192.053970,110.567795 
	C192.084991,106.367180 190.430298,104.949249 186.492020,104.959946 
	C164.699005,105.019127 142.904404,105.118874 121.113434,104.898468 
	C115.057358,104.837212 116.467918,109.162254 115.476929,112.691467 
	C115.237137,110.184959 115.237137,107.382118 115.237137,104.179375 
	C140.967987,104.179375 166.639603,104.179375 192.628677,104.179375 
	C192.628677,129.667770 192.628677,155.178802 192.628677,181.008453 
	C191.239624,181.083511 189.958557,181.212402 188.677429,181.213074 
	C165.721649,181.225082 142.765854,181.229431 119.810112,181.203140 
	C118.336647,181.201462 116.863480,180.937393 115.315918,180.360291 
z"/>
<path fill="#0F25B4" opacity="1.000000" stroke="none" 
	d="
M189.986877,207.735504 
	C189.948456,206.856674 189.990204,206.345459 189.880814,205.868942 
	C189.825317,205.627167 189.497299,205.447952 189.126358,205.072189 
	C188.508835,206.600647 187.967453,208.058624 187.319565,209.467636 
	C187.140564,209.856918 186.644531,210.100418 185.581039,211.042053 
	C184.793884,208.107437 184.140945,205.673187 183.487991,203.238922 
	C183.018997,203.245651 182.550003,203.252365 182.081009,203.259079 
	C182.081009,204.934692 182.281647,206.645187 181.998871,208.271637 
	C181.850983,209.122345 180.853775,209.825394 180.240143,210.595123 
	C179.727341,209.759064 178.742188,208.901474 178.779144,208.090469 
	C179.003418,203.168106 179.460739,198.256348 179.819321,193.611862 
	C184.159164,191.401505 185.014236,194.160828 185.507706,196.801102 
	C187.275803,195.169006 188.959930,193.614410 191.698563,191.086441 
	C192.466293,198.758987 193.047928,204.571701 193.629547,210.384415 
	C193.271027,210.576950 192.912491,210.769470 192.553970,210.962006 
	C191.704147,210.013824 190.854324,209.065643 189.986877,207.735504 
z"/>
<path fill="#2135B4" opacity="1.000000" stroke="none" 
	d="
M67.942207,206.156570 
	C65.648590,207.561432 63.487560,209.293640 61.028366,210.289734 
	C57.830399,211.585068 56.093403,210.418549 56.285774,206.615616 
	C56.508953,202.203644 56.337772,197.771744 56.337772,193.444931 
	C62.689529,192.216125 63.609100,192.828812 66.649673,200.164719 
	C67.333656,202.062332 67.636009,203.453247 67.943779,205.172256 
	C67.946869,205.719070 67.944542,205.937820 67.942207,206.156570 
z"/>
<path fill="#1B2FB3" opacity="1.000000" stroke="none" 
	d="
M68.039551,206.486938 
	C67.944542,205.937820 67.946869,205.719070 67.946335,204.737091 
	C67.919624,201.630707 67.895775,199.287582 67.871918,196.944458 
	C69.916382,195.335373 72.010033,192.412323 73.991478,192.486496 
	C75.975632,192.560760 77.856842,195.618820 79.762947,197.390778 
	C80.286255,197.877289 80.737091,198.441742 81.605537,199.358536 
	C81.969551,201.209976 81.949211,202.673325 81.928871,204.136658 
	C81.030991,205.005539 79.947647,205.749786 79.266045,206.764008 
	C75.516502,212.343338 72.286079,212.387756 68.039551,206.486938 
M74.467369,196.042419 
	C70.346397,197.987579 69.922966,202.075974 73.656647,207.601929 
	C77.328087,204.177704 76.539993,200.429611 74.467369,196.042419 
z"/>
<path fill="#CDCEB2" opacity="1.000000" stroke="none" 
	d="
M101.997894,12.327364 
	C77.742508,12.645472 53.350819,12.587815 28.959114,12.580468 
	C27.842680,12.580132 26.726109,13.032508 25.210583,13.431610 
	C26.016903,12.755019 27.218256,11.199889 28.428171,11.193198 
	C52.331112,11.061007 76.235062,11.102443 100.138702,11.154313 
	C100.713577,11.155560 101.287323,11.680546 101.997894,12.327364 
z"/>
<path fill="#1C31B4" opacity="1.000000" stroke="none" 
	d="
M165.576904,195.394592 
	C167.602463,194.333969 169.827530,192.184235 171.599350,192.508789 
	C173.497940,192.856583 175.660034,195.262268 176.446411,197.264877 
	C177.348022,199.560989 177.540909,202.620895 176.787323,204.941681 
	C176.067947,207.157150 174.006927,209.961487 172.032654,210.442551 
	C170.236603,210.880173 167.764557,208.543533 165.317001,206.811951 
	C164.900391,205.425568 164.757263,204.657028 164.787781,203.531677 
	C167.069733,200.847290 167.976181,201.555786 168.758759,204.331406 
	C169.047974,205.357224 170.753494,205.983719 171.813049,206.792343 
	C172.298325,204.626038 173.133743,202.461090 173.142151,200.292953 
	C173.147491,198.916229 171.923248,196.383728 171.250504,196.383759 
	C169.613251,196.383820 167.976044,197.558182 166.005722,198.402267 
	C165.903076,197.682297 165.739990,196.538437 165.576904,195.394592 
z"/>
<path fill="#152AB3" opacity="1.000000" stroke="none" 
	d="
M40.050819,201.105362 
	C39.888065,209.055283 38.017807,210.712158 29.916754,210.173248 
	C29.916754,204.630859 29.916754,199.053619 29.922451,193.473541 
	C36.958187,191.842499 39.409615,193.587173 40.050819,201.105362 
M36.324200,199.271942 
	C35.360683,198.080429 34.397167,196.888931 33.016056,195.181015 
	C33.016056,199.899155 33.016056,203.380737 33.016056,206.862320 
	C33.726711,206.939758 34.437366,207.017197 35.148018,207.094635 
	C35.597507,204.733017 36.046993,202.371399 36.324200,199.271942 
z"/>
<path fill="#293EBD" opacity="1.000000" stroke="none" 
	d="
M142.991119,207.485657 
	C143.613953,207.194229 144.759995,206.931183 144.777573,206.606949 
	C144.930115,203.793533 144.877686,200.969116 144.890640,198.147995 
	C144.914566,192.940247 147.096832,191.643814 151.993713,193.925583 
	C147.859818,195.803329 147.775833,197.650864 151.865280,201.749237 
	C149.509460,203.628860 145.461288,205.814224 151.923584,207.515503 
	C151.412033,208.546448 150.741821,210.513199 150.414459,210.457687 
	C148.153641,210.074371 145.964355,209.269424 143.343964,208.528137 
	C142.904709,208.129944 142.923126,207.806396 142.991119,207.485657 
z"/>
<path fill="#1C2FAC" opacity="1.000000" stroke="none" 
	d="
M129.222595,210.692398 
	C128.074890,209.840332 126.736542,209.003189 126.698547,208.110672 
	C126.489609,203.203033 126.598785,198.281860 126.598785,193.190765 
	C129.133499,193.190765 131.429138,193.190765 132.884720,193.190765 
	C131.993530,196.970825 131.085419,200.338547 130.466721,203.758636 
	C130.293839,204.714386 130.758499,205.966873 131.322937,206.825348 
	C131.930038,207.748672 132.998230,208.368851 133.865219,209.121307 
	C132.454224,209.641464 131.043228,210.161606 129.222595,210.692398 
z"/>
<path fill="#1E33B5" opacity="1.000000" stroke="none" 
	d="
M163.355957,207.978210 
	C162.389816,208.872086 161.365280,210.583160 160.467590,210.519012 
	C156.480392,210.234085 153.858780,206.376633 153.846817,201.442993 
	C153.835480,196.764267 156.713501,192.661102 160.536469,192.364944 
	C161.383163,192.299347 162.331589,193.546783 163.142853,194.776459 
	C163.009171,195.524582 162.965820,195.685867 162.531647,195.884796 
	C158.786194,196.138596 157.899551,198.296051 157.683151,201.249771 
	C157.375641,205.447159 160.229935,206.781174 163.355957,207.978210 
z"/>
<path fill="#1428A5" opacity="1.000000" stroke="none" 
	d="
M90.007095,193.040207 
	C94.366165,193.488022 99.021355,191.431961 101.773628,193.292053 
	C101.126907,197.876160 100.755302,201.340607 100.110924,204.753555 
	C99.748184,206.674820 98.935486,208.511124 98.325485,210.385712 
	C97.869606,208.524048 97.204819,206.683792 97.011482,204.795242 
	C96.777229,202.507141 97.106842,200.158768 96.838226,197.878204 
	C96.751190,197.139328 95.548172,196.531891 94.378510,195.415665 
	C93.339966,195.482071 92.778526,195.997131 92.217087,196.512207 
	C92.246292,197.809082 92.275505,199.105942 91.737137,200.687347 
	C90.513725,200.974213 89.857887,200.976547 89.202057,200.978882 
	C89.146843,200.537262 89.091637,200.095673 89.246933,199.232849 
	C89.505936,198.708267 89.623169,198.563766 89.590424,198.509064 
	C89.479317,198.323456 89.315178,198.169586 89.171295,198.003601 
	C89.129555,197.549530 89.087822,197.095474 89.347061,196.085785 
	C89.767723,194.700165 89.887413,193.870193 90.007095,193.040207 
z"/>
<path fill="#172CAC" opacity="1.000000" stroke="none" 
	d="
M142.585754,207.291809 
	C142.923126,207.806396 142.904709,208.129944 142.974152,208.695862 
	C141.026642,209.877594 139.040863,210.819748 136.313293,212.113861 
	C136.313293,205.018936 136.313293,199.166916 136.313293,193.314911 
	C136.674576,193.015198 137.035843,192.715485 137.397125,192.415771 
	C138.239120,193.372513 139.689529,194.260254 139.807373,195.299149 
	C140.141739,198.247009 139.744415,201.275269 140.038589,204.231720 
	C140.139725,205.248123 141.432190,206.145966 142.585754,207.291809 
z"/>
<path fill="#1F33BB" opacity="1.000000" stroke="none" 
	d="
M47.851742,207.700348 
	C45.825100,208.556229 43.904747,209.054153 42.464981,209.427475 
	C43.397465,206.688828 44.375210,204.836761 44.603752,202.896454 
	C44.912209,200.277664 44.536705,197.584610 44.693958,194.937622 
	C44.737324,194.207642 45.631874,193.528244 46.135872,192.825638 
	C46.831287,193.521439 48.107716,194.202087 48.126324,194.915543 
	C48.234264,199.053543 48.046062,203.199280 47.851742,207.700348 
z"/>
<path fill="#D3DCEE" opacity="1.000000" stroke="none" 
	d="
M162.922485,195.847168 
	C162.965820,195.685867 163.009171,195.524582 163.187622,195.152283 
	C163.827957,195.021576 164.333206,195.101852 165.207687,195.288361 
	C165.739990,196.538437 165.903076,197.682297 166.005722,198.402267 
	C167.976044,197.558182 169.613251,196.383820 171.250504,196.383759 
	C171.923248,196.383728 173.147491,198.916229 173.142151,200.292953 
	C173.133743,202.461090 172.298325,204.626038 171.813049,206.792343 
	C170.753494,205.983719 169.047974,205.357224 168.758759,204.331406 
	C167.976181,201.555786 167.069733,200.847290 164.581314,203.231430 
	C163.774994,200.807739 163.348740,198.327454 162.922485,195.847168 
z"/>
<path fill="#1429AB" opacity="1.000000" stroke="none" 
	d="
M117.090515,195.874573 
	C117.048965,194.790741 117.334457,193.008942 117.843987,192.942383 
	C120.191795,192.635712 122.602058,192.807175 125.306274,193.280396 
	C120.359993,197.596970 122.637093,202.974457 122.122124,207.823837 
	C122.022659,208.760498 121.190704,209.619354 120.696648,210.514099 
	C120.076004,209.587433 119.060638,208.722488 118.904442,207.723221 
	C118.295471,203.827438 117.958740,199.889130 117.090515,195.874573 
z"/>
<path fill="#273AA9" opacity="1.000000" stroke="none" 
	d="
M50.187057,205.598618 
	C50.180923,202.001511 49.966736,198.833298 50.280125,195.718155 
	C50.401379,194.512848 51.717888,193.427765 52.489868,192.287918 
	C52.932758,192.527451 53.375645,192.766998 53.818531,193.006531 
	C53.818531,198.723053 53.818531,204.439575 53.818531,210.274536 
	C49.718758,211.056107 50.489929,208.108719 50.187057,205.598618 
z"/>
<path fill="#2A3DB7" opacity="1.000000" stroke="none" 
	d="
M105.297173,210.069275 
	C105.020668,204.276077 105.020668,198.817688 105.020668,193.359283 
	C105.341438,193.023071 105.662201,192.686844 105.982971,192.350616 
	C106.918480,193.281815 108.594757,194.163132 108.661385,195.152817 
	C108.951279,199.458664 108.938942,203.808380 108.620056,208.111313 
	C108.558182,208.946228 106.637131,209.643372 105.297173,210.069275 
z"/>
<path fill="#0620B7" opacity="1.000000" stroke="none" 
	d="
M81.944923,204.540588 
	C81.949211,202.673325 81.969551,201.209976 81.968010,199.307648 
	C82.442871,196.878525 82.939613,194.888382 83.436348,192.898239 
	C84.045158,194.958252 84.832954,196.985382 85.218857,199.086334 
	C85.736343,201.903671 85.942970,204.778122 87.033386,207.849777 
	C88.579697,208.068527 89.375671,208.065567 90.171646,208.062592 
	C88.639015,209.008362 87.036819,210.833817 85.588043,210.719254 
	C82.440750,210.470367 81.580711,207.890900 81.944923,204.540588 
z"/>
<path fill="#DFE5F4" opacity="1.000000" stroke="none" 
	d="
M162.531647,195.884796 
	C163.348740,198.327454 163.774994,200.807739 164.407684,203.588257 
	C164.757263,204.657028 164.900391,205.425568 165.052917,206.585632 
	C164.638992,207.231018 164.215668,207.484894 163.574158,207.858490 
	C160.229935,206.781174 157.375641,205.447159 157.683151,201.249771 
	C157.899551,198.296051 158.786194,196.138596 162.531647,195.884796 
z"/>
<path fill="#283AAF" opacity="1.000000" stroke="none" 
	d="
M90.406967,208.093414 
	C89.375671,208.065567 88.579697,208.068527 87.390991,208.015930 
	C87.668877,205.890869 88.339485,203.821365 89.106079,201.365372 
	C89.857887,200.976547 90.513725,200.974213 91.496231,200.997467 
	C91.842613,203.339203 91.871384,205.655533 91.830093,207.970581 
	C91.829048,208.028839 91.055534,208.073318 90.406967,208.093414 
z"/>
<path fill="#8595BD" opacity="1.000000" stroke="none" 
	d="
M67.652634,197.172516 
	C67.895775,199.287582 67.919624,201.630707 67.940918,204.408997 
	C67.636009,203.453247 67.333656,202.062332 66.998672,200.275650 
	C67.121811,199.053452 67.277580,198.227005 67.652634,197.172516 
z"/>
<path fill="#283AAF" opacity="1.000000" stroke="none" 
	d="
M92.497589,196.319595 
	C92.778526,195.997131 93.339966,195.482071 93.961121,195.277649 
	C93.606590,195.767853 93.192345,195.947418 92.497589,196.319595 
z"/>
<path fill="#1D30B3" opacity="1.000000" stroke="none" 
	d="
M115.171188,175.371399 
	C115.403648,175.870255 115.532860,176.735031 115.451065,177.796844 
	C115.182686,177.241699 115.125313,176.489502 115.171188,175.371399 
z"/>
<path fill="#283AAF" opacity="1.000000" stroke="none" 
	d="
M89.650406,193.105896 
	C89.887413,193.870193 89.767723,194.700165 89.421204,195.750519 
	C89.227486,195.037796 89.260605,194.104706 89.650406,193.105896 
z"/>
<path fill="#283AAF" opacity="1.000000" stroke="none" 
	d="
M89.085617,198.251129 
	C89.315178,198.169586 89.479317,198.323456 89.590424,198.509064 
	C89.623169,198.563766 89.505936,198.708267 89.311707,198.903580 
	C89.110649,198.829926 89.055298,198.664307 89.085617,198.251129 
z"/>
<path fill="#DFE6F5" opacity="1.000000" stroke="none" 
	d="
M74.794914,196.308151 
	C76.539993,200.429611 77.328087,204.177704 73.656647,207.601929 
	C69.922966,202.075974 70.346397,197.987579 74.794914,196.308151 
z"/>
<path fill="#DBE6F5" opacity="1.000000" stroke="none" 
	d="
M36.410339,199.640869 
	C36.046993,202.371399 35.597507,204.733017 35.148018,207.094635 
	C34.437366,207.017197 33.726711,206.939758 33.016056,206.862320 
	C33.016056,203.380737 33.016056,199.899155 33.016056,195.181015 
	C34.397167,196.888931 35.360683,198.080429 36.410339,199.640869 
z"/>
</svg>