<?xml version="1.0" standalone="no"?>
<!DOCTYPE svg PUBLIC "-//W3C//DTD SVG 20010904//EN"
 "http://www.w3.org/TR/2001/REC-SVG-20010904/DTD/svg10.dtd">
<svg version="1.0" xmlns="http://www.w3.org/2000/svg"
 width="163.000000pt" height="175.000000pt" viewBox="0 0 163.000000 175.000000"
 preserveAspectRatio="xMidYMid meet">

<g transform="translate(0.000000,175.000000) scale(0.100000,-0.100000)"
fill="#000000" stroke="none">
<path d="M850 1335 l0 -335 335 0 335 0 0 335 0 335 -335 0 -335 0 0 -335z"/>
<path d="M140 635 l0 -335 335 0 335 0 -2 332 -3 333 -332 3 -333 2 0 -335z"/>
<path d="M857 963 c-4 -3 -7 -154 -7 -335 l0 -328 335 0 335 0 0 335 0 335
-328 0 c-181 0 -332 -3 -335 -7z"/>
<path d="M142 168 c2 -57 7 -93 14 -95 7 -2 24 6 39 19 56 49 38 168 -26 168
l-30 0 3 -92z m54 27 c8 -34 -3 -75 -21 -75 -11 0 -15 13 -15 50 0 37 4 50 15
50 8 0 17 -11 21 -25z"/>
<path d="M270 196 c0 -56 -3 -67 -22 -80 -21 -15 -21 -17 -6 -33 14 -13 20
-14 32 -3 12 9 16 33 16 96 0 49 -4 84 -10 84 -6 0 -10 -28 -10 -64z"/>
<path d="M317 253 c-10 -9 -8 -156 2 -171 14 -22 21 11 21 99 0 73 -6 90 -23
72z"/>
<path d="M362 173 c3 -83 4 -88 26 -91 13 -2 30 2 38 8 16 14 19 66 3 76 -6 3
-8 17 -4 31 10 41 -3 63 -36 63 l-30 0 3 -87z m48 37 c0 -5 -7 -10 -15 -10 -8
0 -15 5 -15 10 0 6 7 10 15 10 8 0 15 -4 15 -10z m0 -75 c0 -8 -4 -15 -9 -15
-13 0 -22 16 -14 24 11 11 23 6 23 -9z"/>
<path d="M470 245 c-23 -28 -24 -106 0 -143 29 -47 58 -41 86 17 l22 45 7 -35
c23 -105 95 -62 95 57 0 32 4 44 13 42 8 -3 13 -30 15 -77 4 -95 25 -92 32 4
3 42 10 70 18 73 9 3 12 -16 12 -72 0 -61 3 -76 15 -76 12 0 15 17 15 89 l0
89 -75 1 -74 1 -3 -67 c-2 -52 -6 -68 -18 -68 -12 0 -16 15 -18 68 -2 51 -6
67 -17 67 -11 0 -15 -12 -15 -37 l-1 -38 -17 35 c-13 27 -24 36 -48 38 -19 2
-36 -3 -44 -13z m66 -50 c8 -32 -3 -75 -19 -75 -31 0 -46 44 -31 84 10 25 43
19 50 -9z"/>
<path d="M860 247 c0 -7 4 -17 9 -22 6 -6 11 -39 13 -75 4 -84 22 -80 28 7 3
40 10 68 18 71 9 3 12 -15 12 -66 0 -70 9 -89 40 -88 20 1 25 35 6 42 -18 7
-22 34 -6 34 20 0 23 31 4 45 -18 14 -18 16 -1 26 9 5 17 17 17 24 0 12 -16
15 -70 15 -51 0 -70 -4 -70 -13z"/>
<path d="M1022 173 l3 -88 35 -1 c19 -1 37 -2 40 -3 39 -16 68 11 37 34 -19
14 -23 35 -7 35 20 0 23 31 4 45 -18 14 -18 16 -1 26 28 17 21 39 -13 39 l-30
0 0 -76 c0 -65 -2 -75 -16 -70 -9 3 -18 6 -20 6 -2 0 -4 32 -4 70 0 56 -3 70
-15 70 -13 0 -15 -14 -13 -87z"/>
<path d="M1179 228 c-7 -17 -12 -47 -12 -65 2 -57 53 -114 74 -82 15 23 10 39
-11 39 -12 0 -25 10 -32 25 -15 33 3 75 32 75 13 0 20 7 20 20 0 15 -7 20 -29
20 -23 0 -31 -6 -42 -32z"/>
<path d="M1275 230 c-21 -40 -19 -89 5 -128 27 -43 58 -40 83 8 13 25 17 47
13 79 -7 55 -20 71 -57 71 -21 0 -32 -7 -44 -30z m69 -26 c18 -48 -9 -99 -39
-74 -27 23 -16 90 15 90 10 0 21 -7 24 -16z"/>
<path d="M1400 223 c0 -21 -3 -62 -6 -90 -8 -61 11 -76 22 -18 7 38 24 38 24
0 0 -33 17 -40 24 -10 7 29 26 24 26 -6 0 -12 5 -19 13 -16 6 2 11 10 9 16 -1
7 -5 46 -9 87 -6 79 -21 93 -36 34 -9 -35 -23 -31 -29 10 -2 14 -11 26 -20 28
-15 3 -18 -4 -18 -35z"/>
</g>
</svg>
